<?xml version="1.0" encoding="utf-8"?>
<!-- Generator: Adobe Illustrator 18.0.0, SVG Export Plug-In . SVG Version: 6.00 Build 0)  -->
<!DOCTYPE svg PUBLIC "-//W3C//DTD SVG 1.1//EN" "http://www.w3.org/Graphics/SVG/1.1/DTD/svg11.dtd">
<svg version="1.1" id="Layer_1" xmlns="http://www.w3.org/2000/svg" xmlns:xlink="http://www.w3.org/1999/xlink" x="0px" y="0px"
	 viewBox="0 0 80.9 96.2" enable-background="new 0 0 80.9 96.2" xml:space="preserve">
<g>
	<path fill="#001F5B" d="M28,87.4c-2.5-0.1-2.6-0.8-2.9-2.2l-0.3-1.4h-12l-1.1,1.4c-1.9,2.4-1.8,2.3-8.3,2.3l14-17.3
		c1.9-2.3,2.2-2.4,5.6-2.4h3.5l5,19.7C29.4,87.5,28.8,87.5,28,87.4z M22.3,71.5l-7,9h8.9L22.3,71.5z"/>
	<path fill="#001F5B" d="M54.3,69.9c-0.2,0.4-0.4,0.8-0.9,1.1c-0.6,0.4-1.7,0.5-3.8,0.5h-3.4l-4.6,16.1c-5.3,0-5.7-0.1-4.9-3.1
		l3.7-13h-7.6c1-3.3,1.2-3.6,5-3.6h16.9C54.6,69,54.4,69.5,54.3,69.9z"/>
	<path fill="#001F5B" d="M64.5,81h-4.6l-1,3.4L58,87.5c-1.1,0-4,0.2-4.9-0.4c-0.5-0.4-0.5-1.2,0-2.7l3.8-13.4
		c0.5-1.6,0.6-2.9,3.4-3.1c0.6,0,1.5,0,2.7,0h5c10.5,0,10.6,3.7,9.8,6.5C77,77.1,75.2,81,64.5,81z M67.1,71.4h-4.5l-1.8,6.1h4.6
		c5.4,0,5.5,0,6.3-3.1C72.2,73,72.3,71.4,67.1,71.4z"/>
</g>
<g>
	<path fill="#001F5B" d="M12.4,95.3c-0.3,0.4-0.5,0.6-0.7,0.7c-0.3,0.2-0.7,0.1-1,0.1H9.8l-0.6-4.3l-2.4,3.4
		c-0.6,0.8-0.6,0.9-1.8,0.9H4.3l-0.9-5.9c0.4,0,1.2,0,1.6,0.1c0.3,0.1,0.3,0.5,0.3,0.7l0.4,3.5l3-4.3c0.4,0,1.3,0,1.7,0.1
		c0.3,0.1,0.3,0.5,0.4,0.7l0.5,3.5l2.3-3.5c0.6-0.9,0.6-0.9,2.5-0.9L12.4,95.3z"/>
	<path fill="#001F5B" d="M18.5,96.3c-3.2,0-3.6-1.4-3.1-3c0.5-1.6,1.6-3,4.9-3c3.2,0,3.6,1.4,3.1,3C22.9,94.8,21.7,96.3,18.5,96.3z
		 M19.9,91.3c-2.2,0-2.2,0-2.8,1.9c-0.3,1.1-0.2,1.9,1.6,1.9c2.2,0,2.2,0,2.8-1.9C21.9,92.1,21.7,91.3,19.9,91.3z"/>
	<path fill="#001F5B" d="M28.4,94l2.3,2.2c-0.9,0-0.9,0-1.2,0c-0.9,0-1.1-0.1-1.6-0.7l-1.5-1.7c-0.2-0.3,0-0.9,0.7-0.9h0.5
		c0.9,0,1.3,0,1.5-0.1c0.2-0.1,0.3-0.6,0.4-0.8c0.1-0.4,0.1-0.8-1.4-0.8h-1.3l-0.7,2.5l-0.7,2.4c-0.3,0-1.2,0-1.5-0.1
		c-0.2-0.1-0.1-0.3,0-0.8l1.2-4c0.1-0.5,0.2-0.9,1-0.9c0.2,0,0.5,0,0.8,0h1.5c3.1,0,3.2,1.1,3,1.9C30.9,93.5,29.6,94,28.4,94z"/>
	<path fill="#001F5B" d="M36.2,96.2h-3.3c-1.3,0-1.5,0-1.2-0.9l1.4-5c0.3,0,1.2,0,1.5,0.1c0.2,0.1,0.1,0.3,0,0.8l-1.1,3.9h1.8
		c0.6,0,0.9,0,1,0.2C36.5,95.4,36.3,96,36.2,96.2z"/>
	<path fill="#001F5B" d="M40.3,96.2h-1.6c-0.7,0-1.1,0-1.3-0.1c-0.2-0.2-0.1-0.6,0-0.8l0.3-1l0.9-3.1c0.3-0.9,0.4-0.9,1.8-0.9h1.7
		c2.5,0,3.5,1.1,3,2.9C44.6,95,42.8,96.2,40.3,96.2z M41.5,91.3h-1.2l-1.1,3.8h1.1c2.5,0,2.5,0,3-2C43.8,91.7,43.1,91.3,41.5,91.3z"
		/>
	<path fill="#001F5B" d="M54.5,90.9c-0.1,0.1-0.1,0.2-0.3,0.3c-0.2,0.1-0.5,0.1-1.1,0.1h-1l-1.4,4.8c-1.6,0-1.7,0-1.5-0.9l1.1-3.9
		h-2.3c0.3-1,0.4-1.1,1.5-1.1h5.1C54.6,90.6,54.6,90.8,54.5,90.9z"/>
	<path fill="#001F5B" d="M57.2,96.3c-3.2,0-3.6-1.4-3.1-3c0.5-1.6,1.6-3,4.9-3c3.2,0,3.6,1.4,3.1,3C61.6,94.8,60.4,96.3,57.2,96.3z
		 M58.6,91.3c-2.2,0-2.2,0-2.8,1.9c-0.3,1.1-0.2,1.9,1.6,1.9c2.2,0,2.2,0,2.8-1.9C60.6,92.1,60.5,91.3,58.6,91.3z"/>
	<path fill="#001F5B" d="M69.6,95.2c-0.1,0.2-0.1,0.4-0.2,0.5c-0.2,0.3-0.4,0.4-0.9,0.5c-0.2,0-0.5,0-0.8,0h-2
		c-2.5,0-3.4-0.8-2.8-2.7l0.9-3.3c0.3,0,1.2,0,1.5,0.1c0.2,0.1,0.2,0.3,0,0.7l-0.7,2.4c-0.3,1.1-0.1,1.6,1.4,1.6h1.8l1.4-4.8
		c0.3,0,1.2,0,1.5,0.1c0.2,0.1,0.2,0.3,0,0.8L69.6,95.2z"/>
	<path fill="#001F5B" d="M75.1,94l2.3,2.2c-0.9,0-0.9,0-1.2,0c-0.9,0-1.1-0.1-1.6-0.7l-1.5-1.7c-0.2-0.3,0-0.9,0.7-0.9h0.5
		c0.9,0,1.3,0,1.5-0.1c0.2-0.1,0.3-0.6,0.4-0.8c0.1-0.4,0.1-0.8-1.4-0.8h-1.3l-0.7,2.5l-0.7,2.4c-0.3,0-1.2,0-1.5-0.1
		c-0.2-0.1-0.1-0.3,0-0.8l1.1-4c0.1-0.5,0.2-0.9,1-0.9c0.2,0,0.4,0,0.8,0h1.5c3.1,0,3.2,1.1,3,1.9C77.7,93.5,76.4,94,75.1,94z"/>
</g>
<path fill="#00AEEF" d="M80.9,30.3c-0.1-0.5-0.9-0.8-0.9-0.8c0-0.6-0.9-0.8-0.9-0.8l0-0.1c-0.2-0.7-1-0.5-1-0.5v-0.2
	c-0.1-0.5-0.9-0.3-0.9-0.3c-0.3-0.6-1-0.1-1-0.1c-0.2,0.4-0.6,0.4-0.6,0.4c-1,0-1.1,0.6-1.1,0.6l-0.2,0.7C73.7,30.5,74,31,74,31
	c0.2,0.5,0.3,0.7,0.3,0.7c0.1,1,0.5,1.8,0.5,1.8c-0.5,0.1-0.6,0.7-0.6,0.7c-0.2,0.6-1.9,2.5-1.9,2.5c-0.5,0.2-0.1,0.9-0.1,0.9
	c-1.7,1.6-2.6,2.1-2.6,2.1c-3.5,2.3-6.3,5.4-6.3,5.4c-2.2-0.4-5,0.2-5,0.2l0-0.3c-1.5,0.3-3.2,1.3-3.2,1.3c-0.4,0.2-1.1,0-1.1,0
	c-2.4-1.3-6.7-0.9-6.7-0.9c-2.2,0.5-2.7,0.7-2.7,0.7l-4.2,0.2l-0.3-0.7c-0.1-0.2-0.4-0.3-0.4-0.3l0,0c0-0.3,0-0.5-0.1-0.7L39.4,42
	l1.1-1.4c0.3,0-0.2-3.5-0.2-3.5c0.1-0.5-0.8-2.5-0.8-2.5c0.3-1.5-0.8-2.5-0.8-2.5s-0.6-0.8-0.7-1.3c-0.1-0.5-1.7-1.3-2.7-1.7
	c-1.1-0.4-3,0-5.2,1.5c-2.2,1.4-2.7,4.4-2.7,4.9c0,0.5,0.8,2.7,0.7,2.7c-0.1,0-0.5-0.1-0.2,1.1c0.3,1.3,1.9,2.3,1.9,2.3
	c0.3,0.1,1,2.3,1.2,3.3l-0.3,0.1l-0.2,0.5l-0.5,0.4c-0.2,0.1-0.7,0.1-1.3,0.1c-0.5-0.2-2.7-0.7-6.1-0.2l-3.3-1.7l-0.2,0.3
	c-0.9-0.3-1.9-0.4-3-0.4c0,0-2.3-4.7-4.5-6.4l0-0.2c0,0,0,0,0,0c0.2-0.1,0-0.6,0-0.9c0-0.2-0.7-1-0.7-1L10,34.3c0,0-0.3-0.7-0.4-1.2
	c-0.1-0.4-0.5-0.2-0.5-0.2c-0.2-0.5-0.2-1-0.1-1.1c0.2-0.1,1-3.1,1-3.5c0-0.4-0.7-2-0.9-2.4c1-0.8,2.8-2.4,3.2-2.7
	c3.6-2.1,6.7-4.9,8.2-8.9C22.9,8,21.8,2.7,17.7,0.6l-0.2-0.1l-0.2-0.1l-0.2-0.1c-3.9-1.3-8.3,0.9-11,6.9c-1.7,3.9-1.8,8-0.9,12.3
	c0.2,0.9,0.3,2.4,0.2,3.8h0l0,0.3l-1.1,0.2C3.9,24.1,4,24.4,4,24.4l0.3,1.7l0,0.1c-0.2,0-0.5,0.2-0.5,0.7l0,0.1
	c-0.6,0.1-0.5,1-0.5,1c-0.8,0.3-0.5,1-0.5,1c-0.6,0.4-0.1,0.9,0.1,1.2c0.2,0.3,1,2.1,1,2.1l-0.9,2.4c-1.1,2.8-2.3,5.6-2.3,5.6
	c0,0.1-0.1,0.2-0.2,0.2l-0.1,0.1c0,0-0.1,0.1-0.1,0.3c0.1,0.2,0.6,0.5,1.2,0.8c0.6,0.3,0.9,0.4,1.1,0.3c0.1-0.2,0.1-0.3,0.1-0.3
	c0-0.1,0-0.1,0-0.2c0-0.1,0-0.2,0-0.3c0,0,0.9-2.1,1.9-4.6l0,0l0.7-1.7l0.2,0.2c-0.1,0-0.2,0.1-0.1,0.4c0.1,0.3,0.1,0.5,0.3,0.6
	c0.2,0.2,0.2,0.2,0.3,0.5c0.1,0.3,0,0.8,0.1,0.9c0,0,0.1,0.2,0.2,0.3c0,0.3,0.2,0.6,0.3,1.1c0.1,0.4,0.2,0.3,0.2,0.3s0,0,0.1,0
	c0.8,2,3,7.8,6,10.7c0,0,1.2,0.2,2.2,1L14.8,51l-0.2,0.4c0,0,0.8,0.4,1.4,0.8c0.6,0.4,3.3,2,4.8,2.6l0.8,4.3h27.3
	c0.1-0.5,0.1-0.8,0.1-0.8c0.4-2.4,2.8-3.5,2.8-3.5c0.6-0.4,5.5-0.9,5.5-0.9l0-0.4c6.1-1.4,9.1-3.6,9.1-3.6c1.2-0.2,1.4-0.5,1.4-0.5
	c0.2-0.2,0.9-0.8,0.9-0.8c3.5-2.3,7.1-8.8,7.1-8.8c0.8,0.2,1-0.5,1-0.5c0.3-0.4,2-2.6,2-2.6c0.5-0.4,0.2-0.8,0.2-0.8l-0.3-0.3
	l0.1-0.1c0.2-0.2,0.5-1.1,0.7-1.3c0.2-0.2,0.7-1.3,0.7-1.3c0.1-0.3,0.6-1.4,0.6-1.4C81.1,30.9,80.9,30.3,80.9,30.3z M7.7,8.2
	c0.9-2.3,4.2-8.6,9.2-6.3c4.4,2,4.1,8.2,2.3,12c-2.6,5.6-6.6,9.2-10.3,7.1C4.9,18.8,6.3,11.8,7.7,8.2z M7.6,25.5l-0.4-0.2
	C7.3,24.5,6.5,24,6.5,24l0-0.9c0-0.4,0-0.7,0-1.1c0-0.3,0-0.5,0-0.7c0-0.2,0.1-0.2,0.2-0.2c0.1,0,0.6,0.5,0.6,0.5
	c0.3,0.3,0.5,0.5,1.2,0.9c0.8,0.4,1,0.4,1.4,0.4c0.2,0,0.4,0,0.5,0c0.1,0,0.2,0.1,0.3,0.2c0.1,0,0.1,0.1,0,0.3
	c-0.1,0.1-0.3,0.3-0.5,0.5c0,0-1.3,1.1-1.9,1.6L7.6,25.5z"/>
<path fill="#001F5B" d="M40.7,59.6c13.9,0,26.7,2.9,37.3,7.8c-10-6.6-23-10.6-37.3-10.6c-14.3,0-27.3,4-37.3,10.6
	C14,62.4,26.9,59.6,40.7,59.6z"/>
<g>
	<path fill="#001F5B" d="M77.5,86.7h-0.6l0.1-0.4h1.6l-0.1,0.4H78l-0.3,1.6h-0.4L77.5,86.7z"/>
	<path fill="#001F5B" d="M78.8,86.3h0.6l0.2,1.4h0l0.8-1.4h0.6l-0.4,2h-0.4l0.4-1.6h0l-0.8,1.6h-0.3l-0.2-1.6h0l-0.3,1.6h-0.4
		L78.8,86.3z"/>
</g>
</svg>
